<svg xmlns="http://www.w3.org/2000/svg" viewBox="0 0 381.37 386.867"><defs><style>.cls-6{fill:#cc2228}.cls-2{clip-path:url(#clip-path)}.cls-3{fill:#a62023}.cls-4{fill:#e84728}</style><clipPath id="clip-path"><path id="Path_214" data-name="Path 214" d="M173.5 82.552l36.811 103.837h-73.952zM142.382 14L36.3 293.586h62.578l22.756-62.5h103.405l21.752 62.5h63.917L205.3 14z" transform="translate(-36.3 -14)"/></clipPath></defs><g id="Group_19" data-name="Group 19" transform="translate(-205 7)"><path id="Path_226-2" data-name="Path 226" d="M181.985 86.79l39.086 110.255h-78.528zM148.939 14L36.3 310.867h66.447l24.162-66.367h109.8l23.1 66.367h67.861L215.741 14z" transform="translate(213.7 24)" opacity=".64" fill="#cc2228"/><g id="Group_10" data-name="Group 10" transform="translate(258 47)"><g id="Group_3" data-name="Group 3" class="cls-2"><path id="Rectangle_1" data-name="Rectangle 1" class="cls-3" transform="translate(13.386 202.297)" d="M0 0h58.563v83.002H0z"/></g><g id="Group_4" data-name="Group 4" class="cls-2"><path id="Path_215" data-name="Path 215" class="cls-4" d="M92.1 183.814L194.836 0l102.736 183.814z" transform="translate(94.632 -47.046)"/></g><g id="Group_5" data-name="Group 5" class="cls-2"><path id="Path_217" data-name="Path 217" d="M266.872 0L164.136 183.814 61.4 0z" transform="translate(22.596 -47.046)" fill="#f18720"/></g><g id="Group_6" data-name="Group 6" class="cls-2"><path id="Path_219" data-name="Path 219" class="cls-6" d="M30.8 183.578L133.2.1l102.737 183.478z" transform="translate(-49.205 -46.81)"/></g><g id="Group_7" data-name="Group 7" class="cls-2"><path id="Path_221" data-name="Path 221" class="cls-6" d="M0 238.514L102.736 54.7l102.736 183.814z" transform="translate(-121.476 82.069)"/></g><g id="Group_8" data-name="Group 8" class="cls-2"><path id="Path_223" data-name="Path 223" class="cls-4" d="M297.237 54.7l-102.4 183.814L92.1 54.7z" transform="translate(94.632 82.069)"/></g><g id="Group_9" data-name="Group 9" class="cls-2"><path id="Path_225" data-name="Path 225" class="cls-3" d="M338.673 238.514L235.937 54.7H30.8l102.4 183.814 76.3-136.433-76.3 136.433z" transform="translate(-49.205 82.069)"/></g></g></g></svg>