<svg xmlns="http://www.w3.org/2000/svg" viewBox="0 0 45.61 40.4"><defs><style>.cls-2{fill:#353a50}</style></defs><g id="Group_39" data-name="Group 39" opacity=".75"><path id="Path_25" data-name="Path 25" class="cls-2" d="M44.167 14.91a4.9 4.9 0 0 0-1.122-.561A20.191 20.191 0 0 0 3.527 20.2c0 .8.08 1.6.16 2.4A12.842 12.842 0 0 0 .16 28.376l-.16.481.481-.16c.321-.08.641-.24.962-.321 1.122-.4 2.325-.8 3.367-1.122A20.194 20.194 0 0 0 43.927 20.2a12.988 12.988 0 0 0-.08-1.763c.882-.321 1.443-.641 1.6-1.122l.08-.08v-.08c0-.08.08-.16.08-.321a2.458 2.458 0 0 0-1.44-1.924zm-28.376-4.73l-.08-.721-.08-.24-.24-.561-.16-.16-.481-.641-.16-.16-.481-.641-.16-.24a.986.986 0 0 1-.16-.4c.4-1.042 3.687-1.523 7.775-1.523a57.942 57.942 0 0 1 8.256.561 32.973 32.973 0 0 1 6.653 1.523c1.122.481 1.763.962 1.763 1.523a5.893 5.893 0 0 1-.962 1.363 6.237 6.237 0 0 0-1.363 2.237 92.3 92.3 0 0 0-20.04-1.443h-.08a1.818 1.818 0 0 1 .08-.321zm2.325 7.054a2.5 2.5 0 0 1 .561-.721 3.287 3.287 0 1 1 0 4.649 3.184 3.184 0 0 1-.882-2.886l.08-.321a3.726 3.726 0 0 1 .241-.721zm-2.806-1.6a6.368 6.368 0 0 0-.481 1.763c-1.042-.24-2.084-.4-2.966-.641-3.287-.882-5.371-1.763-5.451-2.565a46.622 46.622 0 0 1 10.02-.641 6.544 6.544 0 0 0-1.122 2.081zm-.16 6.894a20.2 20.2 0 0 0-8.1 1.6A26.626 26.626 0 0 0 1.122 27.9c-.16.08-.321.08-.4.16a11.753 11.753 0 0 1 4.248-5.936 24.376 24.376 0 0 1 10.02-4.008h.24v-.641a4.571 4.571 0 0 1 1.042.08 2.469 2.469 0 0 1 .962.4 3.829 3.829 0 1 0 1.122-1.924c-.4-.16-.882-.321-1.283-.481a6.067 6.067 0 0 0-1.2-.08 10.881 10.881 0 0 1 1.042-1.924c2.966.08 6.252.24 9.539.481.4 0 .8.08 1.122.08a35.394 35.394 0 0 1-1.122 4.168 23.3 23.3 0 0 1-1.523 3.447 19.445 19.445 0 0 1-1.122 1.6c-.4.481-.8 1.042-1.283 1.523a8.44 8.44 0 0 1-7.455 1.763c-.08-.08-.16-.24-.24-.321l-.24-.481v-.16h-.16a.294.294 0 0 1-.24-.08h-.24c-.16 0-.321-.08-.481-.08H10.9a1.565 1.565 0 0 0-.561.08H10.1c-.16 0-.4.08-.561.08H9.3c-.16 0-.4.08-.561.08l-.24.08a.606.606 0 0 0-.321.08h-.16l-.24.08c-.16 0-.321.08-.481.08h-.24a3.472 3.472 0 0 0-.4.08l-.24.08c-.16 0-.24.08-.4.08l-.321.16a.612.612 0 0 0-.4.16l-.24.08c-.8.24-1.523.481-2.325.721a26.512 26.512 0 0 1 4.649-2.806 19 19 0 0 1 7.856-1.6.213.213 0 0 0 .24-.24c-.086-.161-.166-.236-.326-.236zm13.306-5.13c.16.08.24 0 .321-.08a5.4 5.4 0 0 0 .481-1.363q.12-.721.24-1.683c.321 0 .561.08.882.08-.641 4.649-1.443 9.459-4.81 13.226a9.361 9.361 0 0 1-3.045 2.322 9.611 9.611 0 0 1-5.21.641 2.221 2.221 0 0 1-1.283-.8 1.616 1.616 0 0 1-.24-.882 6.332 6.332 0 0 0 2.244.4 7.877 7.877 0 0 0 2.325-.641c.16-.08.16-.16.16-.321-.08-.16-.16-.16-.321-.16a6.639 6.639 0 0 1-2.164.561 7.045 7.045 0 0 1-2.325-.4 1.242 1.242 0 0 1-.641-.641.885.885 0 0 1 0-.641 8.757 8.757 0 0 0 7.936-1.844c.16-.08.24-.24.4-.321a13.572 13.572 0 0 0 2.164-2.886v-.48l.08-.08.08-.16.08-.08c.08-.08.08-.16.16-.321a17.849 17.849 0 0 0 .962-2.485 40.625 40.625 0 0 0 1.122-4.008l.08-.24c.321 0 .561.08.882.08-.08.641-.16 1.2-.24 1.6a6.007 6.007 0 0 1-.4 1.283.2.2 0 0 0 .08.32zm3.287 14.99l.16 2.084-8.978 5.371h-.08l.24-.24c1.763-2.084 3.607-4.088 5.21-6.333.721-1.042 1.443-2 2.164-3.126l.08-.08v-.24l.08-.08.08-.08q.842-1.323 1.683-2.886a2.507 2.507 0 0 0 .4-.8l.4 1.2.16.641 1.283 4.168-2.725.08h-.24zm-15.23 3.287l-.16-1.042 1.847-1.367-.561 3.527-.321 1.924c-.08 0-.16-.08-.321-.08zm0 2.806c-.641-.24-1.2-.561-1.844-.8l1.443-1.363zm1.6-1.523l.4-.321.24.481-.481 1.924c-.16-.08-.321-.08-.481-.16zm.08-.641l.321-1.844c.08.08.16.24.24.321a4.837 4.837 0 0 0 .641.641zm2.084 1.042l.481-.882 2.648 1.923c-.321.321-.561.641-.882.962-.16.16-.24.321-.4.4-.561-.08-1.042-.08-1.6-.16zm.16-1.763a18.64 18.64 0 0 0 2.244-.4 12.658 12.658 0 0 0 5.13-2.725 15.389 15.389 0 0 0 1.2-1.122c-.4.561-.721 1.122-1.122 1.6s-.8 1.042-1.2 1.523c-.882 1.122-1.844 2.244-2.806 3.367h-.24zm12.188-15.717a20.593 20.593 0 0 0 0 5.451 29.649 29.649 0 0 1-2.806 4.409 20.006 20.006 0 0 1-2.565 2.645 13.506 13.506 0 0 1-4.649 2.4 14.889 14.889 0 0 1-2.725.481l-.721-.721a4.405 4.405 0 0 1-.561-.721c0-.16.08-.24.08-.4a6.591 6.591 0 0 0 .16-2.164h.882a1.189 1.189 0 0 0 .561-.08h.24c.16 0 .4-.08.561-.08l.24-.08c.16-.08.4-.08.561-.16l.24-.08.481-.24.24-.08.481-.24.24-.16c.16-.08.321-.24.481-.321l.24-.16c.16-.08.24-.24.4-.321l.24-.24c.16-.08.24-.24.4-.321l.24-.24a1.407 1.407 0 0 0 .321-.4l.24-.321c.16-.16.24-.321.4-.481l.24-.321a23.669 23.669 0 0 0 3.687-9.619c.16-.882.321-1.763.4-2.725 1.042.08 2.084.24 3.046.4a29.43 29.43 0 0 0-1.275 4.89zm-8.737 19.96l8.417-5.05.16-.08v-.16l-.16-1.924 2.725-.08h.321l-.08-.4-1.122-3.607 4.97 3.848a19.664 19.664 0 0 1-15.232 7.453zm15.31-21c-1.683.16-3.687.24-5.932.24.24-1.283.721-2.645 1.2-4.248 4.569.641 8.417 1.443 10.421 2.4-.399.725-2.487 1.286-5.687 1.606zm-4.489-4.489l-.24-.08a63.6 63.6 0 0 0-7.856-.8c-8.176-.641-16.352-.721-20.12.16.4-1.042 2.485-1.683 5.21-2.084 1.122-.16 2.325-.24 3.527-.321h.16a85.611 85.611 0 0 1 24.77 2.482 16.512 16.512 0 0 1 3.687 1.523c.721.481 1.2.962 1.2 1.443a46.828 46.828 0 0 0-10.338-2.325z"/><path id="Path_26" data-name="Path 26" class="cls-2" d="M25.131 23.444c.481 0 .721-.16.8-.481a4.624 4.624 0 0 1 1.122.24c-.24.481-1.683.641-2.164.641a.24.24 0 1 0 0 .481c.641 0 2.645-.24 2.645-1.122v-.08a1.632 1.632 0 0 0-.721-1.283 5.531 5.531 0 0 0-1.844-.641.24.24 0 0 0 0 .481 4.208 4.208 0 0 1 1.6.481 2.125 2.125 0 0 1 .4.481c-.16 0-.24-.08-.4-.08a10.773 10.773 0 0 0-1.763-.24c-.557 0-.477 1.122.325 1.122z" transform="translate(-4.851 -4.206)"/></g></svg>