<svg xmlns="http://www.w3.org/2000/svg" viewBox="0 0 793.938 187.804"><defs><style>.cls-1{fill:#741426}</style></defs><g id="Group_18" data-name="Group 18" transform="translate(-80 -774.196)"><g id="Group_1" data-name="Group 1" transform="translate(80 774.196)"><path id="Path_198" data-name="Path 198" class="cls-1" d="M240.9 136.064h-24.2l-8.4-23.88h-39.5l-8.4 23.88h-23.7L177.194 29.1h24.2zm-52.346-80.6l-14.321 39.8h28.147z" transform="translate(-136.7 -29.1)"/><path id="Path_199" data-name="Path 199" class="cls-1" d="M213.634 29.1c19.26 0 35.556 8.955 35.556 30.348 0 12.438-6.42 22.388-16.79 26.368 11.852 2.488 14.815 14.428 15.8 24.875.494 6.965.988 21.393 4.938 25.373h-24.2c-2.469-5.473-2.469-15.92-3.457-21.89-1.481-14.925-5.926-19.9-21.235-19.9H183.51v41.791H160.3V29.1zM184 77.358h22.222c10.864 0 20.741-1.99 20.741-14.925 0-12.438-9.877-14.428-19.259-14.428H184.5v29.353z" transform="translate(-43.756 -29.1)"/><path id="Path_200" data-name="Path 200" class="cls-1" d="M262.107 48.5h-56.3v23.386h51.852v18.407H205.81v25.87h57.285v19.9H182.6V29.1h79.507z" transform="translate(44.069 -29.1)"/><path id="Path_201" data-name="Path 201" class="cls-1" d="M202.9 29.1h23.7l43.951 71.641V29.1h22.223v106.964h-23.21l-43.948-71.641v71.641H202.9z" transform="translate(124.017 -29.1)"/><path id="Path_202" data-name="Path 202" class="cls-1" d="M328.1 136.064h-24.2l-8.4-23.88H256l-8.4 23.88h-23.7L264.394 29.1h24.2zm-52.346-80.6l-14.321 39.8h28.147z" transform="translate(206.722 -29.1)"/></g><g id="Group_2" data-name="Group 2" transform="translate(197 893.053)"><path id="Path_203" data-name="Path 203" class="cls-1" d="M161.623 60.1C181.448 60.1 192 73.276 192 92.273c0 19.917-10.552 33.4-31.337 33.4H138.6V60.1zm-21.1 63.734h18.866c21.744 0 30.377-12.869 30.377-31.867s-9.913-30.335-28.779-30.335h-20.468z" transform="translate(-138.6 -58.563)"/><path id="Path_204" data-name="Path 204" class="cls-1" d="M204.106 61.632h-43.487v28.8h40.93v1.838h-40.93v31.56h44.127v1.838H158.7V60.1h45.406z" transform="translate(-94.428 -58.563)"/><path id="Path_205" data-name="Path 205" class="cls-1" d="M205.018 125.672h-2.558L175.6 60.1h2.238l25.9 63.734L229.32 60.1h1.919z" transform="translate(-57.288 -58.563)"/><path id="Path_206" data-name="Path 206" class="cls-1" d="M242.226 61.632h-43.807v28.8h41.249v1.838h-41.249v31.56h44.127v1.838H196.5V60.1h45.726z" transform="translate(-11.357 -58.563)"/><path id="Path_207" data-name="Path 207" class="cls-1" d="M257.129 125.672H214.6V60.1h2.238v63.734h40.29z" transform="translate(28.42 -58.563)"/><path id="Path_208" data-name="Path 208" class="cls-1" d="M292.153 94.534c0 19.917-13.11 34.012-32.3 34.012-18.866 0-31.656-14.1-31.656-34.318S241.31 59.6 259.856 59.6c19.186-.306 32.3 14.095 32.3 34.931m-61.714-.919c0 19.3 12.151 32.786 29.738 32.786 17.907 0 30.378-13.176 30.378-32.173 0-19.61-12.471-33.4-30.058-33.4-17.907.306-30.058 13.789-30.058 32.786" transform="translate(58.308 -59.598)"/><path id="Path_209" data-name="Path 209" class="cls-1" d="M280.279 60.1c10.872 0 19.826 5.209 19.826 17.772 0 11.031-7.994 17.772-20.465 17.772h-26.221v30.028H251.5V60.1zm-26.86 33.705h25.9c10.233 0 18.866-4.9 18.866-15.933 0-11.95-7.994-16.24-19.186-16.24h-25.58z" transform="translate(109.512 -58.563)"/><path id="Path_210" data-name="Path 210" class="cls-1" d="M335.212 125.672h-1.919V67.454c0-1.838.32-3.677.32-5.515 0 0-19.506 42.285-29.418 63.427h-2.558c-9.593-20.836-29.418-63.427-29.418-63.427v63.427H270.3V60.1h2.878l29.422 63.734L332.334 60.1h2.558v65.572z" transform="translate(150.828 -58.563)"/><path id="Path_211" data-name="Path 211" class="cls-1" d="M341.426 61.632h-43.807v28.8h41.249v1.838h-41.249v31.56h44.127v1.838H295.7V60.1h45.726z" transform="translate(206.648 -58.563)"/><path id="Path_212" data-name="Path 212" class="cls-1" d="M366.8 125.672h-2.238L316.6 61.632s.32 3.371.32 4.9v59.137H315V60.1h2.558l47.642 63.427s-.32-6.435-.32-8.273V60.1h1.92v65.572z" transform="translate(249.062 -58.563)"/><path id="Path_213" data-name="Path 213" class="cls-1" d="M385.9 61.632h-24.94v64.04h-1.919v-64.04H334.1V60.1h51.8z" transform="translate(291.037 -58.563)"/></g></g></svg>