<svg id="Group_16" data-name="Group 16" xmlns="http://www.w3.org/2000/svg" viewBox="0 0 40 40"><defs><style>.cls-1{clip-path:url(#clip-path)}.cls-2{fill:#a62023}.cls-3{fill:#e84728}.cls-5{fill:#cc2228}</style><clipPath id="clip-path"><path id="Path_214" data-name="Path 214" d="M56.3 23.808l5.366 14.856H50.885zM51.763 14L36.3 54h9.122l3.317-8.942h15.073L66.983 54H76.3L60.934 14z" transform="translate(-36.3 -14)"/></clipPath></defs><g id="Group_3" data-name="Group 3" class="cls-1"><path id="Rectangle_1" data-name="Rectangle 1" class="cls-2" transform="translate(1.951 28.942)" d="M0 0h8.537v11.875H0z"/></g><g id="Group_4" data-name="Group 4" class="cls-1"><path id="Path_215" data-name="Path 215" class="cls-3" d="M92.1 26.3L107.076 0l14.976 26.3z" transform="translate(-64.88 -6.731)"/></g><g id="Group_5" data-name="Group 5" class="cls-1"><path id="Path_217" data-name="Path 217" d="M91.351 0L76.376 26.3 61.4 0z" transform="translate(-49.156 -6.731)" fill="#f18720"/></g><g id="Group_6" data-name="Group 6" class="cls-1"><path id="Path_219" data-name="Path 219" class="cls-5" d="M30.8 26.35L45.727.1 60.7 26.35z" transform="translate(-33.483 -6.783)"/></g><g id="Group_7" data-name="Group 7" class="cls-1"><path id="Path_221" data-name="Path 221" class="cls-5" d="M0 81l14.976-26.3L29.951 81z" transform="translate(-17.707 -35.133)"/></g><g id="Group_8" data-name="Group 8" class="cls-1"><path id="Path_223" data-name="Path 223" class="cls-3" d="M122 54.7L107.076 81 92.1 54.7z" transform="translate(-64.88 -35.133)"/></g><g id="Group_9" data-name="Group 9" class="cls-1"><path id="Path_225" data-name="Path 225" class="cls-2" d="M75.678 81L60.7 54.7H30.8L45.727 81l11.122-19.521L45.727 81z" transform="translate(-33.483 -35.133)"/></g></svg>